<svg width="43" height="42" viewBox="0 0 43 42" fill="none" xmlns="http://www.w3.org/2000/svg">
<g clip-path="url(#clip0_359_672)">
<path d="M41.1186 29.1638L35.4655 23.5106C35.3079 23.3428 35.1182 23.2084 34.9077 23.1154C34.6972 23.0223 34.4701 22.9725 34.2399 22.969C34.0098 22.9654 33.7813 23.0081 33.568 23.0946C33.3546 23.181 33.1609 23.3095 32.9982 23.4723C32.8355 23.6351 32.7072 23.829 32.6209 24.0423C32.5345 24.2557 32.492 24.4843 32.4957 24.7144C32.4995 24.9445 32.5494 25.1716 32.6426 25.3821C32.7358 25.5925 32.8704 25.7821 33.0382 25.9395L36.9719 29.8801C34.8335 29.885 32.7158 29.4619 30.7434 28.6359C28.771 27.8099 26.9837 26.5976 25.487 25.0704C25.3207 24.9173 25.1255 24.7992 24.9127 24.723C24.7 24.6469 24.4741 24.6142 24.2486 24.6271C24.023 24.6399 23.8023 24.6979 23.5995 24.7976C23.3968 24.8974 23.2161 25.0369 23.0683 25.2078L23.046 25.2421C22.7572 25.5781 22.6094 26.0126 22.6334 26.455C22.6574 26.8974 22.8514 27.3134 23.1748 27.6161C24.9781 29.4398 27.1286 30.8838 29.4991 31.8627C31.8697 32.8416 34.4124 33.3357 36.9771 33.3156L33.0382 37.2545C32.8588 37.4089 32.7131 37.5987 32.6105 37.812C32.5078 38.0253 32.4504 38.2576 32.4418 38.4942C32.4331 38.7307 32.4735 38.9666 32.5603 39.1868C32.6472 39.407 32.7786 39.607 32.9463 39.774C33.1141 39.9411 33.3146 40.0716 33.5352 40.1575C33.7558 40.2434 33.9918 40.2828 34.2283 40.2731C34.4649 40.2635 34.6969 40.2051 34.9098 40.1015C35.1227 39.998 35.3118 39.8515 35.4655 39.6714L41.1186 34.0182C41.7616 33.3741 42.1228 32.5011 42.1228 31.591C42.1228 30.6809 41.7616 29.8079 41.1186 29.1638Z" fill="#642E68"/>
<path d="M36.9718 12.7032L33.0381 16.6369C33.0046 16.6821 32.9736 16.7291 32.9453 16.7777C32.6681 17.1157 32.5314 17.5473 32.5634 17.9832C32.5955 18.4191 32.7938 18.8261 33.1174 19.1199C33.441 19.4138 33.8652 19.572 34.3022 19.5619C34.7391 19.5518 35.1556 19.3742 35.4653 19.0658L38.3958 16.1387L41.1202 13.416C41.5808 12.9518 41.8993 12.3658 42.0384 11.7268C42.1774 11.0878 42.1312 10.4224 41.9052 9.80873C41.7383 9.339 41.4696 8.91197 41.1185 8.5582L35.4653 2.9119C35.3085 2.74151 35.1188 2.60459 34.9077 2.50937C34.6966 2.41415 34.4685 2.36259 34.237 2.35779C34.0054 2.35299 33.7753 2.39506 33.5605 2.48146C33.3456 2.56785 33.1505 2.6968 32.9867 2.86054C32.823 3.02429 32.694 3.21945 32.6076 3.4343C32.5212 3.64915 32.4792 3.87925 32.484 4.11077C32.4888 4.34229 32.5403 4.57045 32.6356 4.78154C32.7308 4.99262 32.8677 5.18228 33.0381 5.3391L36.9769 9.27622C28.5032 9.29684 23.8583 13.8695 19.6464 18.6793C15.778 14.3127 11.1933 9.95474 3.44098 9.34665L2.61474 9.26764C2.15916 9.26764 1.72224 9.44861 1.40009 9.77076C1.07795 10.0929 0.896973 10.5298 0.896973 10.9854C0.905768 11.4382 1.08957 11.8701 1.40983 12.1903C1.73008 12.5106 2.16191 12.6944 2.61474 12.7032C2.73842 12.7032 3.10774 12.7599 3.10774 12.7599C9.80015 13.2666 13.6411 17.0354 17.3772 21.292C13.6634 25.528 9.84825 29.3655 3.2108 29.8121L2.5237 29.8482C2.07153 29.8765 1.64911 30.0832 1.34936 30.4229C1.0496 30.7626 0.89707 31.2074 0.925316 31.6596C0.953562 32.1118 1.16027 32.5342 1.49997 32.8339C1.83967 33.1337 2.28454 33.2862 2.7367 33.258C3.00467 33.246 3.44098 33.2356 3.6557 33.2185C12.2789 32.5537 16.9564 27.0345 21.1271 22.2093C25.3391 17.3411 29.3174 12.7341 36.9718 12.7032Z" fill="#642E68"/>
</g>
<defs>
<clipPath id="clip0_359_672">
<rect width="41.2264" height="41.2264" fill="white" transform="translate(0.886719 0.679688)"/>
</clipPath>
</defs>
</svg>
