<svg width="50" height="50" viewBox="0 0 50 50" fill="none" xmlns="http://www.w3.org/2000/svg">
<g clip-path="url(#clip0_1159_40)">
<path d="M37.4997 18.8828C37.5 18.0448 37.3345 17.215 37.0127 16.4412C36.6909 15.6675 36.2192 14.9651 35.6247 14.3744C34.4083 13.2137 32.7915 12.5661 31.1101 12.5661C29.4288 12.5661 27.812 13.2137 26.5956 14.3744L1.87472 39.1015C0.746429 40.3114 0.131893 41.912 0.160632 43.566C0.189372 45.2201 0.859141 46.7984 2.02878 47.9683C3.19842 49.1382 4.77658 49.8084 6.43064 49.8375C8.08469 49.8666 9.68546 49.2524 10.8956 48.1244L35.6247 23.3973C36.2201 22.8061 36.6924 22.1027 37.0142 21.3278C37.3361 20.5529 37.5011 19.7218 37.4997 18.8828V18.8828ZM7.94972 45.1828C7.52857 45.5842 6.96906 45.8082 6.38722 45.8082C5.80539 45.8082 5.24588 45.5842 4.82472 45.1828C4.41101 44.768 4.17867 44.2061 4.17867 43.6203C4.17867 43.0344 4.41101 42.4725 4.82472 42.0578L21.0101 25.8703L24.1456 29.0057L7.94972 45.1828ZM32.6831 20.4494L27.0831 26.0515L23.9581 22.9161L29.5601 17.3161C29.7598 17.088 30.0043 16.9033 30.2783 16.7734C30.5523 16.6436 30.85 16.5714 31.153 16.5614C31.456 16.5513 31.7579 16.6036 32.0399 16.715C32.3219 16.8263 32.578 16.9944 32.7924 17.2088C33.0068 17.4232 33.1749 17.6793 33.2863 17.9613C33.3976 18.2433 33.4499 18.5452 33.4398 18.8482C33.4298 19.1513 33.3576 19.449 33.2278 19.723C33.098 19.997 32.9133 20.2414 32.6851 20.4411L32.6831 20.4494ZM10.131 5.94735L13.3601 5.02651L14.281 1.79735C14.4293 1.27919 14.7423 0.823424 15.1727 0.498972C15.6031 0.174519 16.1274 -0.000976563 16.6664 -0.000976562C17.2054 -0.000976563 17.7297 0.174519 18.1601 0.498972C18.5904 0.823424 18.9035 1.27919 19.0518 1.79735L19.9726 5.02651L23.2018 5.94735C23.72 6.09569 24.1757 6.40872 24.5002 6.8391C24.8246 7.26947 25.0001 7.79379 25.0001 8.33276C25.0001 8.87174 24.8246 9.39606 24.5002 9.82643C24.1757 10.2568 23.72 10.5698 23.2018 10.7182L19.9726 11.639L19.0518 14.8682C18.9035 15.3863 18.5904 15.8421 18.1601 16.1666C17.7297 16.491 17.2054 16.6665 16.6664 16.6665C16.1274 16.6665 15.6031 16.491 15.1727 16.1666C14.7423 15.8421 14.4293 15.3863 14.281 14.8682L13.3601 11.639L10.131 10.7182C9.61282 10.5698 9.15705 10.2568 8.8326 9.82643C8.50814 9.39606 8.33265 8.87174 8.33265 8.33276C8.33265 7.79379 8.50814 7.26947 8.8326 6.8391C9.15705 6.40872 9.61282 6.09569 10.131 5.94735V5.94735ZM48.2018 35.7182L44.9726 36.639L44.0518 39.8682C43.9035 40.3863 43.5904 40.8421 43.1601 41.1666C42.7297 41.491 42.2054 41.6665 41.6664 41.6665C41.1274 41.6665 40.6031 41.491 40.1727 41.1666C39.7423 40.8421 39.4293 40.3863 39.281 39.8682L38.3601 36.639L35.131 35.7182C34.6128 35.5698 34.1571 35.2568 33.8326 34.8264C33.5081 34.3961 33.3326 33.8717 33.3326 33.3328C33.3326 32.7938 33.5081 32.2695 33.8326 31.8391C34.1571 31.4087 34.6128 31.0957 35.131 30.9473L38.3601 30.0265L39.281 26.7973C39.4293 26.2792 39.7423 25.8234 40.1727 25.499C40.6031 25.1745 41.1274 24.999 41.6664 24.999C42.2054 24.999 42.7297 25.1745 43.1601 25.499C43.5904 25.8234 43.9035 26.2792 44.0518 26.7973L44.9726 30.0265L48.2018 30.9473C48.72 31.0957 49.1757 31.4087 49.5002 31.8391C49.8246 32.2695 50.0001 32.7938 50.0001 33.3328C50.0001 33.8717 49.8246 34.3961 49.5002 34.8264C49.1757 35.2568 48.72 35.5698 48.2018 35.7182V35.7182ZM36.9893 5.20776L39.8143 4.40151L40.6247 1.57235C40.7566 1.12197 41.0309 0.726455 41.4065 0.445082C41.7821 0.163709 42.2388 0.0116278 42.7081 0.0116278C43.1774 0.0116278 43.634 0.163709 44.0096 0.445082C44.3852 0.726455 44.6595 1.12197 44.7914 1.57235L45.5976 4.39735L48.4226 5.2036C48.873 5.33549 49.2685 5.60979 49.5499 5.98538C49.8313 6.36097 49.9834 6.81763 49.9834 7.28693C49.9834 7.75623 49.8313 8.21289 49.5499 8.58848C49.2685 8.96407 48.873 9.23837 48.4226 9.37026L45.5976 10.1765L44.7914 13.0078C44.6595 13.4581 44.3852 13.8537 44.0096 14.135C43.634 14.4164 43.1774 14.5685 42.7081 14.5685C42.2388 14.5685 41.7821 14.4164 41.4065 14.135C41.0309 13.8537 40.7566 13.4581 40.6247 13.0078L39.8185 10.1848L36.9893 9.37443C36.5389 9.24253 36.1434 8.96824 35.862 8.59265C35.5807 8.21705 35.4286 7.76039 35.4286 7.2911C35.4286 6.8218 35.5807 6.36514 35.862 5.98955C36.1434 5.61396 36.5389 5.33966 36.9893 5.20776V5.20776Z" fill="#642E68"/>
</g>
<defs>
<clipPath id="clip0_1159_40">
<rect width="50" height="50" fill="white"/>
</clipPath>
</defs>
</svg>
